<svg xmlns="http://www.w3.org/2000/svg" viewBox="0 0 100 100" fill="none">
  <rect width="100" height="100" rx="20" fill="#00021F" />
  <defs>
    <g id="arm" stroke="currentColor" stroke-width="2.6" stroke-linecap="round" stroke-linejoin="round">
      <path d="M50 48V23" />
      <path d="M50 32L42 25" />
      <path d="M50 32L58 25" />
      <circle cx="50" cy="19" r="2.8" fill="currentColor" stroke="none" />
      <circle cx="41.5" cy="24.5" r="2" fill="currentColor" stroke="none" />
      <circle cx="58.5" cy="24.5" r="2" fill="currentColor" stroke="none" />
    </g>
  </defs>
  <g color="#00A2FF">
    <use href="#arm" />
    <use href="#arm" transform="rotate(45 50 50)" />
    <use href="#arm" transform="rotate(90 50 50)" />
    <use href="#arm" transform="rotate(135 50 50)" />
    <use href="#arm" transform="rotate(180 50 50)" />
    <use href="#arm" transform="rotate(225 50 50)" />
    <use href="#arm" transform="rotate(270 50 50)" />
    <use href="#arm" transform="rotate(315 50 50)" />
  </g>
  <rect x="40" y="40" width="20" height="20" rx="2" transform="rotate(45 50 50)" fill="none" stroke="#00A2FF" stroke-width="2.6" />
  <rect x="44.5" y="44.5" width="11" height="11" rx="1.5" transform="rotate(45 50 50)" fill="#4AF3F8" />
</svg>
