<svg xmlns="http://www.w3.org/2000/svg" viewBox="0 0 232 64" fill="none" role="img" aria-label="NAWAT">
  <defs>
    <g id="arm" stroke="currentColor" stroke-width="2.4" stroke-linecap="round" stroke-linejoin="round">
      <path d="M50 48V21" />
      <path d="M50 31L41 23" />
      <path d="M50 31L59 23" />
      <circle cx="50" cy="16.5" r="3" fill="currentColor" stroke="none" />
      <circle cx="40" cy="22.5" r="2.2" fill="currentColor" stroke="none" />
      <circle cx="60" cy="22.5" r="2.2" fill="currentColor" stroke="none" />
    </g>
  </defs>
  <g transform="translate(4,4) scale(0.56)">
    <g color="#ffffff">
      <use href="#arm" />
      <use href="#arm" transform="rotate(45 50 50)" />
      <use href="#arm" transform="rotate(90 50 50)" />
      <use href="#arm" transform="rotate(135 50 50)" />
      <use href="#arm" transform="rotate(180 50 50)" />
      <use href="#arm" transform="rotate(225 50 50)" />
      <use href="#arm" transform="rotate(270 50 50)" />
      <use href="#arm" transform="rotate(315 50 50)" />
    </g>
    <rect x="39" y="39" width="22" height="22" rx="2" transform="rotate(45 50 50)" fill="none" stroke="#ffffff" stroke-width="2.4" />
    <rect x="44" y="44" width="12" height="12" rx="1.5" transform="rotate(45 50 50)" fill="#4AF3F8" />
  </g>
  <text x="72" y="41" fill="#ffffff" font-family="'thmanyah sans','Plus Jakarta Sans',system-ui,sans-serif" font-size="30" font-weight="800" letter-spacing="4">NAWAT</text>
</svg>
